<?xml version="1.0" encoding="UTF-8"?>
<svg width="256px" height="256px" viewBox="0 0 256 256" version="1.1" xmlns="http://www.w3.org/2000/svg" xmlns:xlink="http://www.w3.org/1999/xlink">
    <!-- Generator: Sketch 48.2 (47327) - http://www.bohemiancoding.com/sketch -->
    <title>2</title>
    <desc>Created with Sketch.</desc>
    <defs>
        <circle id="path-1" cx="128" cy="128" r="113"></circle>
    </defs>
    <g id="Main_Outlined" stroke="none" stroke-width="1" fill="none" fill-rule="evenodd">
        <g id="2">
            <mask id="mask-2" fill="white">
                <use xlink:href="#path-1"></use>
            </mask>
            <use id="circle" fill="#EE352E" xlink:href="#path-1"></use>
            <path d="M90.7355957,182 C90.9348154,174.23043 92.6032558,167.133333 95.7409668,160.708496 C98.7790679,153.48678 105.950871,145.841837 117.256592,137.773438 C127.068164,130.750941 133.418198,125.720718 136.306885,122.682617 C140.739524,117.951148 142.955811,112.771513 142.955811,107.143555 C142.955811,102.561501 141.685804,98.75148 139.145752,95.7133789 C136.6057,92.6752778 132.969994,91.15625 128.238525,91.15625 C121.763884,91.15625 117.356213,93.5717532 115.015381,98.402832 C113.670648,101.191908 112.873781,105.624481 112.624756,111.700684 L91.9309082,111.700684 C92.2795428,102.48677 93.9479831,95.041044 96.9362793,89.3632812 C102.614042,78.55561 112.69939,73.1518555 127.192627,73.1518555 C138.647762,73.1518555 147.761929,76.3268725 154.5354,82.677002 C161.308872,89.0271314 164.695557,97.4315883 164.695557,107.890625 C164.695557,115.90922 162.304956,123.031219 157.523682,129.256836 C154.385971,133.390646 149.231237,137.997533 142.059326,143.077637 L133.542725,149.128906 C128.213596,152.914081 124.56544,155.653312 122.598145,157.34668 C120.63085,159.040048 118.97486,161.007313 117.630127,163.248535 L164.919678,163.248535 L164.919678,182 L90.7355957,182 Z" fill="#FFFFFF"></path>
        </g>
    </g>
</svg>