<?xml version="1.0" encoding="UTF-8"?>
<svg width="256px" height="256px" viewBox="0 0 256 256" version="1.1" xmlns="http://www.w3.org/2000/svg" xmlns:xlink="http://www.w3.org/1999/xlink">
    <!-- Generator: Sketch 48.2 (47327) - http://www.bohemiancoding.com/sketch -->
    <title>3</title>
    <desc>Created with Sketch.</desc>
    <defs>
        <circle id="path-1" cx="128" cy="128" r="113"></circle>
    </defs>
    <g id="Main_Outlined" stroke="none" stroke-width="1" fill="none" fill-rule="evenodd">
        <g id="3">
            <mask id="mask-2" fill="white">
                <use xlink:href="#path-1"></use>
            </mask>
            <use id="circle" fill="#EE352E" xlink:href="#path-1"></use>
            <path d="M111.906494,148.755371 C111.906494,153.088401 112.603753,156.674302 113.998291,159.513184 C116.588148,164.742702 121.294644,167.357422 128.11792,167.357422 C132.301535,167.357422 135.949691,165.925551 139.0625,163.061768 C142.175309,160.197984 143.731689,156.076687 143.731689,150.697754 C143.731689,143.575648 140.843046,138.819348 135.065674,136.428711 C131.778548,135.083978 126.598912,134.411621 119.526611,134.411621 L119.526611,119.171387 C126.449498,119.071777 131.280504,118.39942 134.019775,117.154297 C138.751244,115.06249 141.116943,110.829133 141.116943,104.454102 C141.116943,100.320292 139.909192,96.958509 137.493652,94.3686523 C135.078113,91.7787956 131.678977,90.4838867 127.296143,90.4838867 C122.265844,90.4838867 118.567883,92.0776208 116.202148,95.2651367 C113.836414,98.4526527 112.703369,102.710911 112.802979,108.040039 L92.9309082,108.040039 C93.1301279,102.661106 94.0515055,97.5561765 95.6950684,92.7250977 C97.4382411,88.4916781 100.177472,84.5820492 103.912842,80.9960938 C106.701918,78.456042 110.013897,76.5136786 113.848877,75.1689453 C117.683857,73.824212 122.390353,73.1518555 127.968506,73.1518555 C138.327933,73.1518555 146.682585,75.8288307 153.032715,81.1828613 C159.382844,86.536892 162.557861,93.7211463 162.557861,102.73584 C162.557861,109.110872 160.665302,114.489724 156.880127,118.872559 C154.48949,121.61183 151.999281,123.479487 149.409424,124.475586 C151.351816,124.475586 154.140851,126.144026 157.776611,129.480957 C163.205349,134.511256 165.919678,141.384234 165.919678,150.100098 C165.919678,159.264206 162.744661,167.320034 156.394531,174.267822 C150.044402,181.215611 140.643861,184.689453 128.192627,184.689453 C112.852707,184.689453 102.19461,179.684132 96.2180176,169.67334 C93.0803066,164.344212 91.3371599,157.371625 90.9885254,148.755371 L111.906494,148.755371 Z" fill="#FFFFFF"></path>
        </g>
    </g>
</svg>