<?xml version="1.0" encoding="UTF-8"?>
<svg width="256px" height="256px" viewBox="0 0 256 256" version="1.1" xmlns="http://www.w3.org/2000/svg" xmlns:xlink="http://www.w3.org/1999/xlink">
    <!-- Generator: Sketch 48.2 (47327) - http://www.bohemiancoding.com/sketch -->
    <title>5</title>
    <desc>Created with Sketch.</desc>
    <defs>
        <circle id="path-1" cx="128" cy="128" r="113"></circle>
    </defs>
    <g id="Main_Outlined" stroke="none" stroke-width="1" fill="none" fill-rule="evenodd">
        <g id="5">
            <mask id="mask-2" fill="white">
                <use xlink:href="#path-1"></use>
            </mask>
            <use id="circle" fill="#00933C" xlink:href="#path-1"></use>
            <path d="M111.205322,153.013672 C112.052006,157.645531 113.670642,161.218982 116.061279,163.734131 C118.451916,166.24928 121.93821,167.506836 126.520264,167.506836 C131.799587,167.506836 135.821275,165.65163 138.585449,161.941162 C141.349623,158.230694 142.731689,153.561552 142.731689,147.933594 C142.731689,142.405246 141.436781,137.736103 138.846924,133.926025 C136.257067,130.115948 132.222928,128.210938 126.744385,128.210938 C124.154528,128.210938 121.91334,128.534665 120.020752,129.182129 C116.683821,130.377447 114.16871,132.593734 112.475342,135.831055 L93.3503418,134.93457 L100.970459,75.0942383 L160.661377,75.0942383 L160.661377,93.1733398 L116.360107,93.1733398 L112.475342,116.855469 C115.762468,114.713856 118.327383,113.294437 120.170166,112.597168 C123.258072,111.451654 127.018288,110.878906 131.450928,110.878906 C140.415816,110.878906 148.235074,113.89206 154.908936,119.918457 C161.582797,125.944854 164.919678,134.710392 164.919678,146.215332 C164.919678,156.226124 161.707308,165.165976 155.282471,173.035156 C148.857634,180.904336 139.245425,184.838867 126.445557,184.838867 C116.135935,184.838867 107.669223,182.074735 101.045166,176.546387 C94.4211095,171.018039 90.7355994,163.173879 89.9885254,153.013672 L111.205322,153.013672 Z" fill="#FFFFFF"></path>
        </g>
    </g>
</svg>