<?xml version="1.0" encoding="UTF-8"?>
<svg width="256px" height="256px" viewBox="0 0 256 256" version="1.1" xmlns="http://www.w3.org/2000/svg" xmlns:xlink="http://www.w3.org/1999/xlink">
    <!-- Generator: Sketch 48.2 (47327) - http://www.bohemiancoding.com/sketch -->
    <title>6</title>
    <desc>Created with Sketch.</desc>
    <defs>
        <circle id="path-1" cx="128" cy="128" r="113"></circle>
    </defs>
    <g id="Main_Outlined" stroke="none" stroke-width="1" fill="none" fill-rule="evenodd">
        <g id="6">
            <mask id="mask-2" fill="white">
                <use xlink:href="#path-1"></use>
            </mask>
            <use id="circle" fill="#00933C" xlink:href="#path-1"></use>
            <path d="M112.101807,147.709473 C112.101807,153.53665 113.670639,158.29295 116.80835,161.978516 C119.946061,165.664081 123.930396,167.506836 128.761475,167.506836 C133.492944,167.506836 137.215807,165.726336 139.930176,162.165283 C142.644545,158.60423 144.001709,153.984892 144.001709,148.307129 C144.001709,141.981902 142.457779,137.138445 139.369873,133.776611 C136.281967,130.414778 132.496849,128.733887 128.014404,128.733887 C124.378644,128.733887 121.166274,129.829579 118.377197,132.020996 C114.193583,135.258317 112.101807,140.487757 112.101807,147.709473 Z M142.059326,100.942871 C142.059326,99.1996983 141.38697,97.282237 140.042236,95.1904297 C137.751209,91.803694 134.289818,90.1103516 129.657959,90.1103516 C122.735073,90.1103516 117.804458,93.9950783 114.865967,101.764648 C113.272209,106.047873 112.176517,112.373005 111.578857,120.740234 C114.218519,117.602523 117.281477,115.311531 120.767822,113.867188 C124.254168,112.422844 128.238503,111.700684 132.720947,111.700684 C142.3333,111.700684 150.214813,114.962858 156.365723,121.487305 C162.516632,128.011751 165.592041,136.353953 165.592041,146.51416 C165.592041,156.624562 162.578888,165.539512 156.55249,173.259277 C150.526093,180.979043 141.162905,184.838867 128.462646,184.838867 C114.816094,184.838867 104.755648,179.136287 98.2810059,167.730957 C93.2507073,158.815873 90.7355957,147.311106 90.7355957,133.216309 C90.7355957,124.948689 91.084225,118.225124 91.7814941,113.04541 C93.0266176,103.831497 95.4421207,96.1616517 99.0280762,90.0356445 C102.115982,84.8061262 106.162573,80.5976722 111.167969,77.4101562 C116.173365,74.2226403 122.162319,72.6289062 129.13501,72.6289062 C139.195607,72.6289062 147.214081,75.2062731 153.190674,80.361084 C159.167266,85.5158949 162.529049,92.376422 163.276123,100.942871 L142.059326,100.942871 Z" fill="#FFFFFF"></path>
        </g>
    </g>
</svg>