<?xml version="1.0" encoding="UTF-8"?>
<svg width="256px" height="256px" viewBox="0 0 256 256" version="1.1" xmlns="http://www.w3.org/2000/svg" xmlns:xlink="http://www.w3.org/1999/xlink">
    <!-- Generator: Sketch 48.2 (47327) - http://www.bohemiancoding.com/sketch -->
    <title>B</title>
    <desc>Created with Sketch.</desc>
    <defs>
        <circle id="path-1" cx="128" cy="128" r="113"></circle>
    </defs>
    <g id="Main_Outlined" stroke="none" stroke-width="1" fill="none" fill-rule="evenodd">
        <g id="B">
            <mask id="mask-2" fill="white">
                <use xlink:href="#path-1"></use>
            </mask>
            <use id="circle" fill="#FF6319" xlink:href="#path-1"></use>
            <path d="M107.24585,91.0068359 L107.24585,115.286621 L134.289795,115.286621 C139.120874,115.286621 143.042954,114.377695 146.056152,112.559814 C149.069351,110.741934 150.575928,107.517113 150.575928,102.885254 C150.575928,97.7553454 148.58376,94.3686606 144.599365,92.7250977 C141.162825,91.5795841 136.780056,91.0068359 131.450928,91.0068359 L107.24585,91.0068359 Z M107.24585,133.515137 L107.24585,162.875 L134.289795,162.875 C139.120874,162.875 142.88109,162.227546 145.570557,160.932617 C150.45144,158.54198 152.891846,153.959995 152.891846,147.186523 C152.891846,141.458956 150.526147,137.524425 145.794678,135.382812 C143.155016,134.187494 139.444604,133.564942 134.66333,133.515137 L107.24585,133.515137 Z M138.772217,71.8818359 C152.269355,72.0810557 161.831759,75.9906846 167.459717,83.6108398 C170.846452,88.2925039 172.539795,93.8954752 172.539795,100.419922 C172.539795,107.143588 170.846452,112.547343 167.459717,116.631348 C165.567129,118.922375 162.778095,121.014151 159.092529,122.906738 C164.720487,124.948741 168.966294,128.186013 171.830078,132.618652 C174.693862,137.051292 176.125732,142.430144 176.125732,148.755371 C176.125732,155.279818 174.482194,161.13181 171.195068,166.311523 C169.103261,169.748064 166.488541,172.636707 163.35083,174.977539 C159.81468,177.667006 155.643579,179.509761 150.837402,180.505859 C146.031226,181.501958 140.814237,182 135.186279,182 L85.2819824,182 L85.2819824,71.8818359 L138.772217,71.8818359 Z" fill="#FFFFFF"></path>
        </g>
    </g>
</svg>