<?xml version="1.0" encoding="UTF-8"?>
<svg width="256px" height="256px" viewBox="0 0 256 256" version="1.1" xmlns="http://www.w3.org/2000/svg" xmlns:xlink="http://www.w3.org/1999/xlink">
    <!-- Generator: Sketch 48.2 (47327) - http://www.bohemiancoding.com/sketch -->
    <title>C</title>
    <desc>Created with Sketch.</desc>
    <defs>
        <circle id="path-1" cx="128" cy="128" r="113"></circle>
    </defs>
    <g id="Main_Outlined" stroke="none" stroke-width="1" fill="none" fill-rule="evenodd">
        <g id="C">
            <mask id="mask-2" fill="white">
                <use xlink:href="#path-1"></use>
            </mask>
            <use id="circle" fill="#0039A6" xlink:href="#path-1"></use>
            <path d="M78.1271973,127.837402 C78.1271973,108.612697 83.2819309,93.7959505 93.5915527,83.3867188 C102.556441,74.3222203 113.961601,69.7900391 127.807373,69.7900391 C146.334809,69.7900391 159.881549,75.8661502 168.447998,88.0185547 C173.179467,94.841831 175.719481,101.689907 176.068115,108.562988 L153.05835,108.562988 C151.564202,103.283665 149.64674,99.2993299 147.305908,96.6098633 C143.122294,91.8285894 136.921672,89.4379883 128.703857,89.4379883 C120.336628,89.4379883 113.737573,92.8122221 108.906494,99.560791 C104.075415,106.30936 101.659912,115.859313 101.659912,128.210938 C101.659912,140.562562 104.212377,149.81369 109.317383,155.9646 C114.422389,162.115509 120.909384,165.190918 128.778564,165.190918 C136.846964,165.190918 142.997782,162.551296 147.231201,157.271973 C149.572033,154.433091 151.514397,150.174833 153.05835,144.49707 L175.843994,144.49707 C173.851797,156.50006 168.759318,166.261681 160.566406,173.782227 C152.373494,181.302772 141.877261,185.062988 129.077393,185.062988 C113.239423,185.062988 100.788375,179.982961 91.723877,169.822754 C82.6593785,159.612742 78.1271973,145.617765 78.1271973,127.837402 Z" fill="#FFFFFF"></path>
        </g>
    </g>
</svg>