<?xml version="1.0" encoding="UTF-8"?>
<svg width="256px" height="256px" viewBox="0 0 256 256" version="1.1" xmlns="http://www.w3.org/2000/svg" xmlns:xlink="http://www.w3.org/1999/xlink">
    <!-- Generator: Sketch 48.2 (47327) - http://www.bohemiancoding.com/sketch -->
    <title>D</title>
    <desc>Created with Sketch.</desc>
    <defs>
        <circle id="path-1" cx="128" cy="128" r="113"></circle>
    </defs>
    <g id="Main_Outlined" stroke="none" stroke-width="1" fill="none" fill-rule="evenodd">
        <g id="D">
            <mask id="mask-2" fill="white">
                <use xlink:href="#path-1"></use>
            </mask>
            <use id="circle" fill="#FF6319" xlink:href="#path-1"></use>
            <path d="M111.24585,91.0068359 L111.24585,162.875 L132.462646,162.875 C143.320123,162.875 150.890359,157.52105 155.173584,146.812988 C157.514416,140.936006 158.684814,133.938517 158.684814,125.820312 C158.684814,114.614202 156.929217,106.010528 153.417969,100.009033 C149.906721,94.0075384 142.921683,91.0068359 132.462646,91.0068359 L111.24585,91.0068359 Z M136.347412,71.8818359 C143.170688,71.9814458 148.848366,72.7783128 153.380615,74.2724609 C161.10038,76.8125127 167.350806,81.4692044 172.13208,88.2426758 C175.96706,93.7212188 178.58178,99.6479173 179.976318,106.022949 C181.370857,112.397981 182.068115,118.474092 182.068115,124.251465 C182.068115,138.894116 179.129668,151.295359 173.252686,161.455566 C165.283896,175.151924 152.982261,182 136.347412,182 L88.9084473,182 L88.9084473,71.8818359 L136.347412,71.8818359 Z" fill="#FFFFFF"></path>
        </g>
    </g>
</svg>