<?xml version="1.0" encoding="UTF-8"?>
<svg width="256px" height="256px" viewBox="0 0 256 256" version="1.1" xmlns="http://www.w3.org/2000/svg" xmlns:xlink="http://www.w3.org/1999/xlink">
    <!-- Generator: Sketch 48.2 (47327) - http://www.bohemiancoding.com/sketch -->
    <title>G</title>
    <desc>Created with Sketch.</desc>
    <defs>
        <circle id="path-1" cx="128" cy="128" r="113"></circle>
    </defs>
    <g id="Main_Outlined" stroke="none" stroke-width="1" fill="none" fill-rule="evenodd">
        <g id="G">
            <mask id="mask-2" fill="white">
                <use xlink:href="#path-1"></use>
            </mask>
            <use id="circle" fill="#6CBE45" xlink:href="#path-1"></use>
            <path d="M154.684814,106.24707 C152.941642,98.7265249 148.683383,93.4721829 141.909912,90.4838867 C138.124737,88.8403238 133.916283,88.0185547 129.284424,88.0185547 C120.419145,88.0185547 113.135282,91.3678864 107.432617,98.0666504 C101.729952,104.765414 98.8786621,114.838312 98.8786621,128.285645 C98.8786621,141.832587 101.966522,151.419894 108.142334,157.047852 C114.318146,162.675809 121.340537,165.489746 129.209717,165.489746 C136.929482,165.489746 143.254614,163.261009 148.185303,158.803467 C153.115991,154.345925 156.154047,148.506384 157.299561,141.284668 L131.824463,141.284668 L131.824463,122.906738 L177.69458,122.906738 L177.69458,182 L162.454346,182 L160.138428,168.253906 C155.705788,173.483425 151.721453,177.168935 148.185303,179.310547 C142.1091,183.045917 134.638472,184.913574 125.773193,184.913574 C111.180347,184.913574 99.2273415,179.858449 89.9138184,169.748047 C80.2018557,159.58784 75.3459473,145.692471 75.3459473,128.061523 C75.3459473,110.231356 80.2516599,95.9375538 90.0632324,85.1796875 C99.8748049,74.4218212 112.848796,69.0429688 128.985596,69.0429688 C142.980783,69.0429688 154.224079,72.5915172 162.71582,79.6887207 C171.207562,86.7859242 176.075922,95.6386188 177.321045,106.24707 L154.684814,106.24707 Z" fill="#FFFFFF"></path>
        </g>
    </g>
</svg>