<?xml version="1.0" encoding="UTF-8"?>
<svg width="256px" height="256px" viewBox="0 0 256 256" version="1.1" xmlns="http://www.w3.org/2000/svg" xmlns:xlink="http://www.w3.org/1999/xlink">
    <!-- Generator: Sketch 48.2 (47327) - http://www.bohemiancoding.com/sketch -->
    <title>J</title>
    <desc>Created with Sketch.</desc>
    <defs>
        <circle id="path-1" cx="128" cy="128" r="113"></circle>
    </defs>
    <g id="Main_Outlined" stroke="none" stroke-width="1" fill="none" fill-rule="evenodd">
        <g id="J">
            <mask id="mask-2" fill="white">
                <use xlink:href="#path-1"></use>
            </mask>
            <use id="circle" fill="#996633" xlink:href="#path-1"></use>
            <path d="M111.055908,140.23877 L111.055908,142.778809 C111.255128,151.295453 112.188957,157.284407 113.857422,160.74585 C115.525887,164.207293 119.099338,165.937988 124.577881,165.937988 C130.006619,165.937988 133.592521,164.045429 135.335693,160.260254 C136.381597,158.019032 136.904541,154.233913 136.904541,148.904785 L136.904541,71.8818359 L159.914307,71.8818359 L159.914307,148.53125 C159.914307,157.894578 158.29567,165.315402 155.05835,170.793945 C149.579807,180.057664 139.693675,184.689453 125.399658,184.689453 C111.105641,184.689453 101.518335,180.941688 96.6374512,173.446045 C91.7565674,165.950402 89.3161621,155.728092 89.3161621,142.778809 L89.3161621,140.23877 L111.055908,140.23877 Z" fill="#FFFFFF"></path>
        </g>
    </g>
</svg>