<?xml version="1.0" encoding="UTF-8"?>
<svg width="256px" height="256px" viewBox="0 0 256 256" version="1.1" xmlns="http://www.w3.org/2000/svg" xmlns:xlink="http://www.w3.org/1999/xlink">
    <!-- Generator: Sketch 48.2 (47327) - http://www.bohemiancoding.com/sketch -->
    <title>Q</title>
    <desc>Created with Sketch.</desc>
    <defs>
        <circle id="path-1" cx="128" cy="128" r="113"></circle>
    </defs>
    <g id="Main_Outlined" stroke="none" stroke-width="1" fill="none" fill-rule="evenodd">
        <g id="Q">
            <mask id="mask-2" fill="white">
                <use xlink:href="#path-1"></use>
            </mask>
            <use id="circle" fill="#FCCC0A" xlink:href="#path-1"></use>
            <path d="M129.13501,165.564453 C131.774671,165.564453 134.314685,165.240726 136.755127,164.593262 C138.09986,164.244627 139.818105,163.622075 141.909912,162.725586 L130.778564,152.117188 L142.656982,139.71582 L153.78833,150.324219 C155.531503,146.738263 156.751705,143.600599 157.448975,140.911133 C158.544683,136.876933 159.092529,132.170437 159.092529,126.791504 C159.092529,114.43988 156.564967,104.889926 151.509766,98.1413574 C146.454565,91.3927885 139.071093,88.0185547 129.359131,88.0185547 C120.244827,88.0185547 112.973416,91.255827 107.544678,97.7304688 C102.11594,104.20511 99.4016113,113.892025 99.4016113,126.791504 C99.4016113,141.8824 103.286338,152.689909 111.055908,159.214355 C116.086207,163.447775 122.112514,165.564453 129.13501,165.564453 Z M182.102295,125.147949 C182.102295,134.959522 180.906994,143.177213 178.516357,149.80127 C176.573965,156.126496 173.710224,161.380838 169.925049,165.564453 L182.625244,177.442871 L170.597412,189.993652 L157.299561,177.442871 C153.265361,179.883313 149.779067,181.601558 146.840576,182.597656 C141.909887,184.241219 136.008091,185.062988 129.13501,185.062988 C114.791188,185.062988 102.937791,180.779828 93.5744629,172.213379 C82.2189374,161.903757 76.5412598,146.763283 76.5412598,126.791504 C76.5412598,106.67031 82.3683499,91.4551297 94.0227051,81.1455078 C103.535448,72.7284735 115.363943,68.5200195 129.508545,68.5200195 C143.752757,68.5200195 155.705762,72.9774945 165.36792,81.8925781 C176.524226,92.2022 182.102295,106.620513 182.102295,125.147949 Z" fill="#000000"></path>
        </g>
    </g>
</svg>