<?xml version="1.0" encoding="UTF-8"?>
<svg width="256px" height="256px" viewBox="0 0 256 256" version="1.1" xmlns="http://www.w3.org/2000/svg" xmlns:xlink="http://www.w3.org/1999/xlink">
    <!-- Generator: Sketch 48.2 (47327) - http://www.bohemiancoding.com/sketch -->
    <title>R</title>
    <desc>Created with Sketch.</desc>
    <defs>
        <circle id="path-1" cx="128" cy="128" r="113"></circle>
    </defs>
    <g id="Main_Outlined" stroke="none" stroke-width="1" fill="none" fill-rule="evenodd">
        <g id="R">
            <mask id="mask-2" fill="white">
                <use xlink:href="#path-1"></use>
            </mask>
            <use id="circle" fill="#FCCC0A" xlink:href="#path-1"></use>
            <path d="M109.918213,91.0068359 L109.918213,120.59082 L135.990967,120.59082 C141.17068,120.59082 145.055407,119.99317 147.645264,118.797852 C152.227318,116.706044 154.518311,112.572297 154.518311,106.396484 C154.518311,99.7226229 152.302024,95.2402458 147.869385,92.9492188 C145.379138,91.6542904 141.643824,91.0068359 136.66333,91.0068359 L109.918213,91.0068359 Z M141.44458,71.8818359 C149.164345,72.0312507 155.103495,72.9775303 159.262207,74.7207031 C163.420919,76.4638759 166.944566,79.0287917 169.833252,82.4155273 C172.223889,85.2046038 174.116448,88.2924635 175.510986,91.6791992 C176.905525,95.0659349 177.602783,98.9257596 177.602783,103.258789 C177.602783,108.488307 176.282972,113.63059 173.643311,118.685791 C171.003649,123.740992 166.645782,127.314443 160.56958,129.40625 C165.649684,131.448252 169.248036,134.349346 171.364746,138.109619 C173.481456,141.869892 174.539795,147.609825 174.539795,155.32959 L174.539795,162.725586 C174.539795,167.755885 174.739012,171.167472 175.137451,172.960449 C175.73511,175.799331 177.129628,177.891107 179.321045,179.23584 L179.321045,182 L153.995361,182 C153.298092,179.559558 152.80005,177.592293 152.501221,176.098145 C151.903561,173.010238 151.579834,169.847672 151.530029,166.610352 L151.380615,156.375488 C151.281005,149.352992 149.998547,144.671398 147.533203,142.330566 C145.067859,139.989734 140.44852,138.819336 133.675049,138.819336 L109.918213,138.819336 L109.918213,182 L87.4313965,182 L87.4313965,71.8818359 L141.44458,71.8818359 Z" fill="#000000"></path>
        </g>
    </g>
</svg>