<?xml version="1.0" encoding="UTF-8"?>
<svg width="256px" height="256px" viewBox="0 0 256 256" version="1.1" xmlns="http://www.w3.org/2000/svg" xmlns:xlink="http://www.w3.org/1999/xlink">
    <!-- Generator: Sketch 48.2 (47327) - http://www.bohemiancoding.com/sketch -->
    <title>S</title>
    <desc>Created with Sketch.</desc>
    <defs>
        <circle id="path-1" cx="128" cy="128" r="113"></circle>
    </defs>
    <g id="Main_Outlined" stroke="none" stroke-width="1" fill="none" fill-rule="evenodd">
        <g id="S">
            <mask id="mask-2" fill="white">
                <use xlink:href="#path-1"></use>
            </mask>
            <use id="circle" fill="#808183" xlink:href="#path-1"></use>
            <path d="M105.789062,148.008301 C106.486332,153.038599 107.855947,156.798816 109.897949,159.289062 C113.633319,163.821312 120.033158,166.087402 129.097656,166.087402 C134.526394,166.087402 138.934065,165.489752 142.320801,164.294434 C148.745638,162.003407 151.958008,157.745148 151.958008,151.519531 C151.958008,147.883771 150.364274,145.069834 147.176758,143.077637 C143.989242,141.135244 138.983921,139.417 132.160645,137.922852 L120.506348,135.308105 C109.051212,132.718249 101.132346,129.904312 96.7495117,126.866211 C89.3285762,121.786107 85.6181641,113.842339 85.6181641,103.034668 C85.6181641,93.1732905 89.2040657,84.9805014 96.3759766,78.4560547 C103.547887,71.931608 114.081473,68.6694336 127.977051,68.6694336 C139.581601,68.6694336 149.480184,71.7448423 157.673096,77.895752 C165.866008,84.0466616 170.161619,92.9740626 170.560059,104.678223 L148.446777,104.678223 C148.048338,98.0541661 145.159695,93.3476702 139.780762,90.5585938 C136.194806,88.7158111 131.737331,87.7944336 126.408203,87.7944336 C120.481416,87.7944336 115.750018,88.9897341 112.213867,91.3803711 C108.677717,93.771008 106.909668,97.1078887 106.909668,101.391113 C106.909668,105.325703 108.652815,108.26415 112.13916,110.206543 C114.380382,111.501471 119.161584,113.020499 126.48291,114.763672 L145.458496,119.320801 C153.77592,121.312998 160.051248,123.977522 164.284668,127.314453 C170.85892,132.494167 174.145996,139.989697 174.145996,149.80127 C174.145996,159.861867 170.298622,168.216519 162.60376,174.865479 C154.908897,181.514438 144.039133,184.838867 129.994141,184.838867 C115.650319,184.838867 104.36967,181.564242 96.1518555,175.014893 C87.9340409,168.465543 83.8251953,159.463436 83.8251953,148.008301 L105.789062,148.008301 Z" fill="#FFFFFF"></path>
        </g>
    </g>
</svg>