<svg width="256" height="256" xmlns="http://www.w3.org/2000/svg" xmlns:xlink="http://www.w3.org/1999/xlink"><defs><circle id="a" cx="128" cy="128" r="113"/></defs><g fill="none" fill-rule="evenodd"><use fill="#EE352E" xlink:href="#a"/><path d="M90.736 182c.199-7.77 1.867-14.867 5.005-21.292 3.038-7.221 10.21-14.866 21.516-22.935 9.811-7.022 16.161-12.052 19.05-15.09 4.433-4.732 6.649-9.911 6.649-15.54 0-4.581-1.27-8.392-3.81-11.43-2.54-3.038-6.176-4.557-10.907-4.557-6.475 0-10.883 2.416-13.224 7.247-1.344 2.789-2.141 7.221-2.39 13.298H91.93c.349-9.214 2.017-16.66 5.005-22.338 5.678-10.807 15.763-16.211 30.257-16.211 11.455 0 20.569 3.175 27.342 9.525 6.774 6.35 10.16 14.755 10.16 25.214 0 8.018-2.39 15.14-7.171 21.366-3.138 4.134-8.293 8.74-15.465 13.82l-8.516 6.052c-5.33 3.785-8.978 6.524-10.945 8.218a24.082 24.082 0 0 0-4.968 5.902h47.29V182H90.736z" fill="#FFF"/></g></svg>