<svg width="256" height="256" xmlns="http://www.w3.org/2000/svg" xmlns:xlink="http://www.w3.org/1999/xlink"><defs><circle id="a" cx="128" cy="128" r="113"/></defs><g fill="none" fill-rule="evenodd"><use fill="#EE352E" xlink:href="#a"/><path d="M111.906 148.755c0 4.333.698 7.92 2.092 10.758 2.59 5.23 7.297 7.844 14.12 7.844 4.184 0 7.832-1.431 10.945-4.295 3.112-2.864 4.669-6.985 4.669-12.364 0-7.122-2.889-11.879-8.666-14.27-3.287-1.344-8.467-2.016-15.54-2.016v-15.24c6.923-.1 11.755-.773 14.494-2.018 4.731-2.092 7.097-6.325 7.097-12.7 0-4.134-1.208-7.495-3.623-10.085-2.416-2.59-5.815-3.885-10.198-3.885-5.03 0-8.728 1.594-11.094 4.781-2.366 3.188-3.499 7.446-3.399 12.775H92.931c.2-5.379 1.12-10.484 2.764-15.315 1.743-4.233 4.482-8.143 8.218-11.729 2.789-2.54 6.1-4.482 9.936-5.827 3.835-1.345 8.541-2.017 14.12-2.017 10.359 0 18.714 2.677 25.064 8.03 6.35 5.355 9.525 12.54 9.525 21.554 0 6.375-1.893 11.754-5.678 16.137-2.39 2.739-4.88 4.606-7.47 5.603 1.942 0 4.73 1.668 8.367 5.005 5.428 5.03 8.143 11.903 8.143 20.62 0 9.163-3.175 17.219-9.525 24.167-6.35 6.948-15.751 10.421-28.202 10.421-15.34 0-25.998-5.005-31.975-15.016-3.138-5.329-4.88-12.301-5.23-20.918h20.918z" fill="#FFF"/></g></svg>