<svg width="256" height="256" xmlns="http://www.w3.org/2000/svg" xmlns:xlink="http://www.w3.org/1999/xlink"><defs><circle id="a" cx="128" cy="128" r="113"/></defs><g fill="none" fill-rule="evenodd"><use fill="#00933C" xlink:href="#a"/><path d="M111.205 153.014c.847 4.632 2.466 8.205 4.856 10.72 2.39 2.515 5.877 3.773 10.46 3.773 5.279 0 9.3-1.855 12.064-5.566 2.765-3.71 4.147-8.38 4.147-14.007 0-5.529-1.295-10.198-3.885-14.008-2.59-3.81-6.624-5.715-12.103-5.715-2.59 0-4.83.324-6.723.971-3.337 1.195-5.852 3.412-7.546 6.65l-19.125-.897 7.62-59.84h59.691v18.078h-44.3l-3.886 23.682c3.287-2.141 5.852-3.56 7.695-4.258 3.088-1.145 6.848-1.718 11.28-1.718 8.966 0 16.785 3.013 23.459 9.04 6.674 6.026 10.01 14.791 10.01 26.296 0 10.011-3.212 18.951-9.637 26.82-6.424 7.87-16.037 11.804-28.836 11.804-10.31 0-18.777-2.764-25.4-8.293-6.625-5.528-10.31-13.372-11.057-23.532h21.216z" fill="#FFF"/></g></svg>