<svg width="256" height="256" xmlns="http://www.w3.org/2000/svg" xmlns:xlink="http://www.w3.org/1999/xlink"><defs><circle id="a" cx="128" cy="128" r="113"/></defs><g fill="none" fill-rule="evenodd"><use fill="#FF6319" xlink:href="#a"/><path d="M107.246 91.007v24.28h27.044c4.83 0 8.753-.91 11.766-2.727 3.013-1.818 4.52-5.043 4.52-9.675 0-5.13-1.992-8.516-5.977-10.16-3.436-1.145-7.819-1.718-13.148-1.718h-24.205zm0 42.508v29.36h27.044c4.83 0 8.591-.647 11.28-1.942 4.881-2.391 7.322-6.973 7.322-13.746 0-5.728-2.366-9.663-7.097-11.804-2.64-1.196-6.35-1.818-11.132-1.868h-27.417zm31.526-61.633c13.497.2 23.06 4.109 28.688 11.729 3.386 4.682 5.08 10.284 5.08 16.809 0 6.724-1.694 12.127-5.08 16.211-1.893 2.291-4.682 4.383-8.367 6.276 5.627 2.042 9.873 5.279 12.737 9.712 2.864 4.432 4.296 9.811 4.296 16.136 0 6.525-1.644 12.377-4.93 17.557-2.093 3.436-4.707 6.325-7.845 8.666-3.536 2.689-7.707 4.532-12.514 5.528-4.806.996-10.023 1.494-15.65 1.494H85.281V71.882h53.49z" fill="#FFF"/></g></svg>