<svg width="256" height="256" xmlns="http://www.w3.org/2000/svg" xmlns:xlink="http://www.w3.org/1999/xlink"><defs><circle id="a" cx="128" cy="128" r="113"/></defs><g fill="none" fill-rule="evenodd"><use fill="#0039A6" xlink:href="#a"/><path d="M78.127 127.837c0-19.224 5.155-34.041 15.465-44.45 8.964-9.065 20.37-13.597 34.215-13.597 18.528 0 32.075 6.076 40.641 18.229 4.731 6.823 7.271 13.67 7.62 20.544h-23.01c-1.494-5.28-3.411-9.264-5.752-11.953-4.184-4.781-10.384-7.172-18.602-7.172-8.367 0-14.966 3.374-19.798 10.123-4.83 6.748-7.246 16.298-7.246 28.65s2.552 21.603 7.657 27.754c5.105 6.15 11.592 9.226 19.462 9.226 8.068 0 14.219-2.64 18.452-7.919 2.341-2.839 4.283-7.097 5.827-12.775h22.786c-1.992 12.003-7.085 21.765-15.278 29.285-8.193 7.52-18.689 11.281-31.489 11.281-15.838 0-28.289-5.08-37.353-15.24-9.065-10.21-13.597-24.205-13.597-41.986z" fill="#FFF"/></g></svg>