<svg width="256" height="256" xmlns="http://www.w3.org/2000/svg" xmlns:xlink="http://www.w3.org/1999/xlink"><defs><circle id="a" cx="128" cy="128" r="113"/></defs><g fill="none" fill-rule="evenodd"><use fill="#FF6319" xlink:href="#a"/><path d="M111.246 91.007v71.868h21.217c10.857 0 18.427-5.354 22.71-16.062 2.341-5.877 3.512-12.874 3.512-20.993 0-11.206-1.756-19.81-5.267-25.811-3.511-6.001-10.496-9.002-20.955-9.002h-21.217zm25.101-19.125c6.824.1 12.501.896 17.034 2.39 7.72 2.54 13.97 7.197 18.751 13.97 3.835 5.48 6.45 11.406 7.844 17.78 1.395 6.376 2.092 12.452 2.092 18.23 0 14.642-2.938 27.043-8.815 37.204-7.97 13.696-20.27 20.544-36.906 20.544H88.908V71.882h47.44z" fill="#FFF"/></g></svg>