<svg width="256" height="256" xmlns="http://www.w3.org/2000/svg" xmlns:xlink="http://www.w3.org/1999/xlink"><defs><circle id="a" cx="128" cy="128" r="113"/></defs><g fill="none" fill-rule="evenodd"><use fill="#6CBE45" xlink:href="#a"/><path d="M154.685 106.247c-1.743-7.52-6.002-12.775-12.775-15.763-3.785-1.644-7.994-2.465-12.626-2.465-8.865 0-16.149 3.349-21.851 10.048-5.703 6.698-8.554 16.771-8.554 30.219 0 13.547 3.088 23.134 9.263 28.762 6.176 5.628 13.199 8.442 21.068 8.442 7.72 0 14.045-2.229 18.975-6.687 4.931-4.457 7.969-10.297 9.115-17.518h-25.476v-18.378h45.87V182h-15.24l-2.316-13.746c-4.432 5.23-8.417 8.915-11.953 11.057-6.076 3.735-13.547 5.603-22.412 5.603-14.593 0-26.546-5.056-35.86-15.166-9.711-10.16-14.567-24.056-14.567-41.686 0-17.83 4.906-32.124 14.717-42.882 9.812-10.758 22.786-16.137 38.923-16.137 13.995 0 25.238 3.549 33.73 10.646 8.492 7.097 13.36 15.95 14.605 26.558h-22.636z" fill="#FFF"/></g></svg>