<svg width="256" height="256" xmlns="http://www.w3.org/2000/svg" xmlns:xlink="http://www.w3.org/1999/xlink"><defs><circle id="a" cx="128" cy="128" r="113"/></defs><g fill="none" fill-rule="evenodd"><use fill="#FCCC0A" xlink:href="#a"/><path d="M129.135 165.564c2.64 0 5.18-.323 7.62-.97 1.345-.35 3.063-.972 5.155-1.868l-11.131-10.609 11.878-12.401 11.131 10.608c1.744-3.586 2.964-6.723 3.661-9.413 1.096-4.034 1.644-8.74 1.644-14.12 0-12.351-2.528-21.901-7.583-28.65-5.055-6.748-12.439-10.122-22.15-10.122-9.115 0-16.387 3.237-21.815 9.711-5.43 6.475-8.143 16.162-8.143 29.062 0 15.09 3.884 25.898 11.654 32.422 5.03 4.234 11.057 6.35 18.079 6.35zm52.967-40.416c0 9.812-1.195 18.03-3.586 24.653-1.942 6.325-4.806 11.58-8.591 15.763l12.7 11.879-12.028 12.55-13.297-12.55c-4.035 2.44-7.52 4.159-10.46 5.155-4.93 1.643-10.832 2.465-17.705 2.465-14.344 0-26.197-4.283-35.56-12.85-11.356-10.31-17.034-25.45-17.034-45.421 0-20.122 5.827-35.337 17.482-45.646 9.512-8.418 21.34-12.626 35.486-12.626 14.244 0 26.197 4.457 35.859 13.373 11.156 10.31 16.734 24.728 16.734 43.255z" fill="#000"/></g></svg>