<svg width="256" height="256" xmlns="http://www.w3.org/2000/svg" xmlns:xlink="http://www.w3.org/1999/xlink"><defs><circle id="a" cx="128" cy="128" r="113"/></defs><g fill="none" fill-rule="evenodd"><use fill="#FCCC0A" xlink:href="#a"/><path d="M109.918 91.007v29.584h26.073c5.18 0 9.064-.598 11.654-1.793 4.582-2.092 6.873-6.226 6.873-12.402 0-6.673-2.216-11.156-6.649-13.447-2.49-1.295-6.225-1.942-11.206-1.942h-26.745zm31.527-19.125c7.72.15 13.658 1.096 17.817 2.839 4.159 1.743 7.683 4.308 10.571 7.695a34.094 34.094 0 0 1 5.678 9.263c1.395 3.387 2.092 7.247 2.092 11.58 0 5.23-1.32 10.372-3.96 15.427-2.64 5.055-6.997 8.628-13.073 10.72 5.08 2.042 8.678 4.943 10.795 8.704 2.116 3.76 3.175 9.5 3.175 17.22v7.396c0 5.03.199 8.441.597 10.234.598 2.84 1.993 4.931 4.184 6.276V182h-25.326c-.697-2.44-1.195-4.408-1.494-5.902a54.224 54.224 0 0 1-.971-9.488l-.15-10.235c-.099-7.022-1.381-11.704-3.847-14.044-2.465-2.341-7.084-3.512-13.858-3.512h-23.757V182H87.431V71.882h54.014z" fill="#000"/></g></svg>