<svg width="256" height="256" xmlns="http://www.w3.org/2000/svg" xmlns:xlink="http://www.w3.org/1999/xlink"><defs><circle id="a" cx="128" cy="128" r="113"/></defs><g fill="none" fill-rule="evenodd"><use fill="#808183" xlink:href="#a"/><path d="M105.79 148.008c.696 5.03 2.066 8.79 4.108 11.281 3.735 4.532 10.135 6.798 19.2 6.798 5.428 0 9.836-.597 13.223-1.793 6.425-2.29 9.637-6.549 9.637-12.774 0-3.636-1.594-6.45-4.781-8.442-3.188-1.943-8.193-3.661-15.016-5.155l-11.655-2.615c-11.455-2.59-19.374-5.404-23.756-8.442-7.421-5.08-11.132-13.024-11.132-23.831 0-9.862 3.586-18.054 10.758-24.579 7.172-6.524 17.705-9.787 31.601-9.787 11.605 0 21.503 3.076 29.696 9.227 8.193 6.15 12.489 15.078 12.887 26.782h-22.113c-.399-6.624-3.287-11.33-8.666-14.12-3.586-1.842-8.044-2.764-13.373-2.764-5.927 0-10.658 1.196-14.194 3.586-3.536 2.391-5.304 5.728-5.304 10.011 0 3.935 1.743 6.873 5.23 8.816 2.24 1.294 7.022 2.813 14.343 4.557l18.975 4.557c8.318 1.992 14.593 4.657 18.827 7.993 6.574 5.18 9.861 12.676 9.861 22.487 0 10.06-3.847 18.416-11.542 25.064-7.695 6.65-18.565 9.974-32.61 9.974-14.344 0-25.624-3.275-33.842-9.824-8.218-6.55-12.327-15.552-12.327-27.007h21.964z" fill="#FFF"/></g></svg>